<svg xmlns="http://www.w3.org/2000/svg" xmlns:xlink="http://www.w3.org/1999/xlink" version="1.1" width="1000" height="1000" viewBox="0 0 1000 1000" xml:space="preserve">
<desc>Created with Fabric.js 3.5.0</desc>
<defs>
</defs>
<rect x="0" y="0" width="100%" height="100%" fill="#ffffff"/>
<g transform="matrix(1.7143 0 0 1.5619 97.8585 57.4545)" id="525607">
<path style="stroke: rgb(141,147,162); stroke-width: 1; stroke-dasharray: none; stroke-linecap: round; stroke-dashoffset: 0; stroke-linejoin: round; stroke-miterlimit: 4; is-custom-font: none; font-file-url: none; fill: none; fill-rule: nonzero; opacity: 1;" vector-effect="non-scaling-stroke" transform=" translate(-12, -12.3171)" d="M 9 20 H 7 C 5.89543 20 5 19.1046 5 18 V 10.9199 C 5 10.336 5.25513 9.78132 5.69842 9.40136 L 10.6984 5.11564 C 11.4474 4.47366 12.5526 4.47366 13.3016 5.11564 L 18.3016 9.40136 C 18.7449 9.78132 19 10.336 19 10.9199 V 18 C 19 19.1046 18.1046 20 17 20 H 15 M 9 20 V 14 C 9 13.4477 9.44772 13 10 13 H 14 C 14.5523 13 15 13.4477 15 14 V 20 M 9 20 H 15" stroke-linecap="round"/>
</g>
</svg>